<svg t="1570193358489" class="icon" viewBox="0 0 1024 1024" version="1.1" xmlns="http://www.w3.org/2000/svg" p-id="37612" width="50" height="50"><path d="M866.8 244.4h-40.9 16.2c13.8 0.8 24.7 12.2 24.7 26.2v-26.2zM520.9 740.4c16 16 16 41.9 0 57.9L409.1 910.1c-16 16-41.9 16-57.9 0s-16-41.9 0-57.9L463 740.4c16-16 41.9-16 57.9 0z" fill="#7192C3" p-id="37613"></path><path d="M887 163H314.5c-22.6 0-41 18.3-41 41 0 22.6 18.3 41 41 41h552.3v367.2c0 22.6 18.3 41 41 41s41-18.3 41-41V227.9c-1.6-34.2-28.1-61.8-61.8-64.9z" fill="#7192C3" p-id="37614"></path><path d="M760.4 278.4H146.9c-38.5 0-70.1 31.5-70.1 70.1v391.8c0 38.5 31.5 70.1 70.1 70.1h613.5c38.5 0 70.1-31.5 70.1-70.1V348.5c-0.1-38.6-31.6-70.1-70.1-70.1z m-405.8 266c0 22.6-18.3 41-41 41h-38.1c-22.6 0-41-18.3-41-41 0-22.6 18.3-41 41-41h38.1c22.6 0 41 18.3 41 41z m158.3 0c0 22.6-18.3 41-41 41h-38.1c-22.6 0-41-18.3-41-41 0-22.6 18.3-41 41-41h38.1c22.6 0 41 18.3 41 41z m158.3 0c0 22.6-18.3 41-41 41h-38.1c-22.6 0-41-18.3-41-41 0-22.6 18.3-41 41-41h38.1c22.6 0 41 18.3 41 41z" fill="#7192C3" p-id="37615"></path></svg>
