<?xml version="1.0" standalone="no"?><!DOCTYPE svg PUBLIC "-//W3C//DTD SVG 1.1//EN" "http://www.w3.org/Graphics/SVG/1.1/DTD/svg11.dtd"><svg t="1567842366800" class="icon" viewBox="0 0 1024 1024" version="1.1" xmlns="http://www.w3.org/2000/svg" p-id="3289" width="100" height="100" xmlns:xlink="http://www.w3.org/1999/xlink"><defs><style type="text/css"></style></defs><path d="M348.672 530.944v8.704c0 89.088 72.192 161.792 161.28 161.792s161.28-72.704 161.28-161.792v-8.704h-322.56z m244.224-61.952c19.456 0 35.328-15.872 35.328-35.328 0-19.456-15.872-35.328-35.328-35.328-19.456 0-35.328 15.872-35.328 35.328 0 19.456 15.872 35.328 35.328 35.328z m-164.352 0c19.456 0 35.328-15.872 35.328-35.328 0-19.456-15.872-35.328-35.328-35.328-19.456 0-35.328 15.872-35.328 35.328 0 19.456 15.872 35.328 35.328 35.328z" p-id="3290" fill="#707070"></path><path d="M950.784 512c0-243.2-197.12-440.832-440.832-440.832S69.632 268.8 69.632 512c0 136.192 61.952 258.048 158.72 338.944V539.648c0-156.16 125.952-282.624 281.6-282.624s281.6 126.464 281.6 282.624v311.296C889.344 770.048 950.784 648.192 950.784 512z" p-id="3291" fill="#707070"></path></svg>