<svg t="1569663543409" class="icon" viewBox="0 0 1024 1024" version="1.1" xmlns="http://www.w3.org/2000/svg" p-id="2394" width="30" height="30"><path d="M574.662 731.517v-344.035c0-40.093 62.634-40.093 62.634 0v344.033c0 40.097-62.634 40.097-62.634 0.001M386.702 731.517v-344.035c0-40.093 62.664-40.093 62.664 0v344.033c-0.001 40.097-62.664 40.097-62.664 0.001M919.238 231.096h-156.616v-62.574c0-51.807-42.117-93.811-93.009-93.811h-314.23c-51.89 0-93.978 42.006-93.978 93.811v62.574h-156.618c-40.151 0-40.151 62.521 0 62.521h814.45c40.123 0 40.123-62.521 0-62.521M324.068 168.521c0-16.615 14.675-31.29 31.314-31.29h314.23c16.641 0 30.346 12.712 30.346 31.29v62.575h-375.891v-62.575M731.279 950.454h-438.56c-51.861 0-93.949-42.001-93.949-93.806v-469.164c0-18.578 14.675-31.289 31.314-31.289 16.643 0 31.318 12.711 31.318 31.289v469.164c0 16.582 14.704 31.253 31.314 31.253h438.56c16.64 0 31.343-14.673 31.343-31.253v-468.196c0-41.062 62.634-41.062 62.634 0v468.196c0.001 51.806-42.087 93.806-93.977 93.806M731.279 950.454z" p-id="2395" fill="#8FA7C7"></path></svg>
