<?xml version="1.0" standalone="no"?><!DOCTYPE svg PUBLIC "-//W3C//DTD SVG 1.1//EN" "http://www.w3.org/Graphics/SVG/1.1/DTD/svg11.dtd"><svg t="1565624746321" class="icon" viewBox="0 0 1024 1024" version="1.1" xmlns="http://www.w3.org/2000/svg" p-id="2094" width="30" height="30" xmlns:xlink="http://www.w3.org/1999/xlink"><defs><style type="text/css"></style></defs><path d="M914.691674 123.697006H109.30935c-47.583643 0-86.289099 38.70648-86.2891 86.290123v603.998113c0 47.583643 38.705456 86.317752 86.2891 86.317752h805.382324c47.58262 0 86.288076-38.734109 86.288076-86.317752V209.987129c0-47.58262-38.705456-86.290123-86.288076-86.290123z m-15.169461 57.497414l-387.51505 335.861726-387.530399-335.861726h775.045449z m15.169461 661.581484H109.30935c-11.670784 0-21.62958-7.049542-26.138258-17.050293l274.221977-219.374921-35.955838-44.913843-240.893984 192.718871V219.283847l431.462893 373.892825L943.454707 219.283847v534.871871l-240.891938-192.718871-35.955838 44.913843L940.812535 825.724587c-4.491282 10.001775-14.49408 17.051317-26.120861 17.051317z" p-id="2095" fill="#ffffff"></path></svg>