<svg t="1570543451402" class="icon" viewBox="0 0 1024 1024" version="1.1" xmlns="http://www.w3.org/2000/svg" p-id="7010" width="30" height="30"><path d="M512 85.333333C276.48 85.333333 85.333333 276.48 85.333333 512s191.146667 426.666667 426.666667 426.666667 426.666667-191.146667 426.666667-426.666667S747.52 85.333333 512 85.333333z m0 785.066667c-197.546667 0-358.4-160.853333-358.4-358.4s160.853333-358.4 358.4-358.4 358.4 160.853333 358.4 358.4-160.853333 358.4-358.4 358.4z" fill="#ffffff" p-id="7011"></path><path d="M307.2 512m-59.733333 0a59.733333 59.733333 0 1 0 119.466666 0 59.733333 59.733333 0 1 0-119.466666 0Z" fill="#ffffff" p-id="7012"></path><path d="M512 512m-59.733333 0a59.733333 59.733333 0 1 0 119.466666 0 59.733333 59.733333 0 1 0-119.466666 0Z" fill="#ffffff" p-id="7013"></path><path d="M716.8 512m-59.733333 0a59.733333 59.733333 0 1 0 119.466666 0 59.733333 59.733333 0 1 0-119.466666 0Z" fill="#ffffff" p-id="7014"></path></svg>
