<svg t="1568976198601" class="icon" viewBox="0 0 1024 1024" version="1.1" xmlns="http://www.w3.org/2000/svg" p-id="8005" width="30" height="30"><path d="M979.2 241.066667L407.466667 812.8c-8.533333 8.533333-21.333333 8.533333-29.866667 0-8.533333-8.533333-8.533333-21.333333 0-29.866667L949.333333 211.2c8.533333-8.533333 21.333333-8.533333 29.866667 0 8.533333 6.4 8.533333 21.333333 0 29.866667z" p-id="8006" fill="#ffffff"></path><path d="M74.666667 452.266667l332.8 332.8c8.533333 8.533333 8.533333 21.333333 0 29.866666-8.533333 8.533333-21.333333 8.533333-29.866667 0L44.8 482.133333c-8.533333-8.533333-8.533333-21.333333 0-29.866666 8.533333-8.533333 21.333333-8.533333 29.866667 0z" p-id="8007" fill="#ffffff"></path></svg>
