<?xml version="1.0" standalone="no"?><!DOCTYPE svg PUBLIC "-//W3C//DTD SVG 1.1//EN" "http://www.w3.org/Graphics/SVG/1.1/DTD/svg11.dtd"><svg t="1568973960927" class="icon" viewBox="0 0 1024 1024" version="1.1" xmlns="http://www.w3.org/2000/svg" p-id="2872" xmlns:xlink="http://www.w3.org/1999/xlink" width="30" height="30"><defs><style type="text/css"></style></defs><path d="M757.637501 0 269.058353 0c-49.017514 0-88.815727 45.805603-88.815727 102.382665l0 819.23467c0 56.577063 39.800205 102.382665 88.815727 102.382665l488.579148 0c49.049394 0 88.851592-45.805603 88.851592-102.382665L846.489093 102.382665C846.489093 45.805603 806.686895 0 757.637501 0zM515.939174 996.662888c-27.926892 0-50.5358-23.093085-50.5358-51.639645s22.608907-51.639645 50.5358-51.639645c27.9249 0 50.533807 23.093085 50.533807 51.639645S543.862082 996.662888 515.939174 996.662888zM779.833961 873.119863 246.82802 873.119863 246.82802 102.382665c0-14.118861 9.976452-25.543861 22.230332-25.543861l488.579148 0c12.25388 0 22.19646 11.425 22.19646 25.543861L779.833961 873.119863z" p-id="2873" fill="#777777"></path></svg>