<svg t="1570180380563" class="icon" viewBox="0 0 1024 1024" version="1.1" xmlns="http://www.w3.org/2000/svg" p-id="34531" width="50" height="50"><path d="M863.6188448 876.86257813A90.56711147 90.56711147 0 0 0 876.08888853 830.80533333V762.31111147c0-100.1244448-90.9312-186.5955552-222.27626666-226.59982294C706.3779552 485.64906667 739.5555552 412.0576 739.5555552 329.9555552c0-49.5616-12.1059552-96.0284448-33.2231104-136.07822187C801.13208853 200.97706667 876.08888853 289.7692448 876.08888853 398.22222187c0 70.76977813-31.85777813 133.16551147-80.41813333 169.9384896 126.11128853 27.30666667 216.95146667 103.90186667 216.95146667 194.1504v69.0403552a45.51111147 45.51111147 0 0 1-45.5111104 45.51111146h-103.49226667zM375.46666667 557.51111147c-125.65617813 0-227.5555552-112.0483552-227.5555552-250.31111147S249.81048853 56.88888853 375.46666667 56.88888853s227.5555552 112.0483552 227.5555552 250.31111147S501.1228448 557.51111147 375.46666667 557.51111147z m364.08888853 318.80533333a91.02222187 91.02222187 0 0 1-91.02222187 91.02222187H102.4a91.02222187 91.02222187 0 0 1-91.02222187-91.02222187V807.82222187C11.37777813 669.55946667 174.39857813 557.51111147 375.46666667 557.51111147s364.08888853 112.0483552 364.08888853 250.3111104v68.49422293z" p-id="34532" fill="#ffffff"></path></svg>
